<svg width="533" height="334" viewBox="0 0 533 334" fill="none" xmlns="http://www.w3.org/2000/svg">
<g clip-path="url(#clip0_135_122)">
<rect x="540" width="337" height="540" rx="20" transform="rotate(90 540 0)" fill="#034DA2"/>
<g filter="url(#filter0_f_135_122)">
<path d="M124.366 173.768C124.366 179.731 119.098 184.566 112.601 184.566H64.0773C57.5805 184.566 52.313 179.731 52.313 173.768V129.232C52.313 123.269 57.5805 118.434 64.0773 118.434H112.602C119.099 118.434 124.367 123.269 124.367 129.232L124.366 173.768Z" fill="white"/>
</g>
<g filter="url(#filter1_f_135_122)">
<path d="M124.366 173.768C124.366 179.731 119.098 184.566 112.601 184.566H64.0773C57.5805 184.566 52.313 179.731 52.313 173.768V129.232C52.313 123.269 57.5805 118.434 64.0773 118.434H112.602C119.099 118.434 124.367 123.269 124.367 129.232L124.366 173.768Z" fill="white"/>
</g>
<g filter="url(#filter2_f_135_122)">
<path d="M124.366 173.768C124.366 179.731 119.098 184.566 112.601 184.566H64.0773C57.5805 184.566 52.313 179.731 52.313 173.768V129.232C52.313 123.269 57.5805 118.434 64.0773 118.434H112.602C119.099 118.434 124.367 123.269 124.367 129.232L124.366 173.768Z" fill="white"/>
</g>
<path d="M124.366 173.768C124.366 179.731 119.098 184.566 112.601 184.566H64.0773C57.5805 184.566 52.313 179.731 52.313 173.768V129.232C52.313 123.269 57.5805 118.434 64.0773 118.434H112.602C119.099 118.434 124.367 123.269 124.367 129.232L124.366 173.768Z" fill="#F0C47A"/>
<path d="M533 151.116C418.703 155.52 331.651 203.244 331.651 203.244C206.962 264.587 155.383 320.432 144.107 333.876H219.961C255.606 274.604 345.809 222.344 345.809 222.344C427.091 174.712 495.892 161.296 533 157.66V151.116Z" fill="#F17A1F"/>
<path d="M533 160.208C494.446 165.193 466.994 175.485 466.994 175.485C326.749 223.361 252.501 309.753 233.928 333.783H305.759C324.402 292.482 379.394 248.855 379.394 248.855C436.703 204.006 494.674 182.256 533 171.917V160.208Z" fill="#F17A1F"/>
<path d="M414.682 117.178C410.436 114.939 406.491 112.184 402.94 108.973C404.02 108.899 405.035 108.789 406.017 108.673C408.878 108.384 411.691 107.759 414.4 106.808C418.253 105.366 420.727 103.531 422.065 101.473C423.306 99.5063 424.044 97.271 424.226 94.9601L423.502 94.9635C419.089 94.9503 414.694 94.4473 410.393 93.4689C406.194 92.6093 402.204 90.95 398.644 88.5904L398.589 88.6346C395.022 86.3288 392.125 83.1417 390.186 79.3881C388.247 75.6378 387.332 71.4486 387.533 67.241C387.453 62.3373 388.969 57.5395 391.853 53.5518C394.801 49.5974 398.694 46.4266 403.188 44.3291C406.635 42.6825 410.313 41.5523 414.096 40.9791C418.704 40.3093 423.36 40 428.016 40.0531H434.01C434.469 40.1069 434.892 40.3272 435.199 40.6693C435.504 41.0102 435.673 41.4507 435.675 41.9085V45.313C435.674 46.9548 435.672 49.1132 435.671 51.8223C435.607 57.8624 435.574 63.5952 435.575 69.0318C435.574 72.735 435.509 76.4806 435.575 80.3312C435.639 84.1838 435.64 87.6953 435.64 90.8952C435.64 96.903 434.636 101.802 432.401 105.504C430.137 109.152 426.91 112.126 423.068 114.103C420.39 115.42 417.58 116.452 414.682 117.178ZM332.09 95.0384C331.269 93.1301 328.454 86.8334 324.535 78.1898C319.593 67.4411 314.604 56.526 309.565 45.4423L308.896 43.9035L319.618 39.1339L337.048 79.8886L352.924 41.7723C353.126 41.4413 353.411 41.1671 353.755 40.9825C354.097 40.7946 354.486 40.696 354.878 40.7034L370.21 40.7034H378.85C379.102 40.7045 379.351 40.752 379.584 40.8497C379.816 40.9463 380.025 41.0913 380.201 41.2685C380.376 41.4478 380.514 41.6601 380.604 41.8949C380.695 42.1275 380.735 42.3753 380.728 42.6235V93.0979C380.735 93.3372 380.696 93.5797 380.608 93.806C380.52 94.0323 380.385 94.2394 380.218 94.4154C380.05 94.5902 379.851 94.7313 379.626 94.8273C379.401 94.9266 379.157 94.9782 378.912 94.9839H370.275C370.028 94.9851 369.786 94.9351 369.558 94.8409C369.329 94.7455 369.12 94.6097 368.945 94.4358C368.772 94.263 368.635 94.0586 368.542 93.8332C368.448 93.6047 368.406 93.3601 368.408 93.1149V50.5524H360.99C357.199 59.0893 353.257 67.9568 349.11 77.2297C344.962 86.5014 342.057 93.0754 341.152 95.0384H332.09ZM467.334 94.9669C463.941 94.9802 460.571 94.404 457.377 93.2715C454.289 92.1611 451.445 90.4761 448.998 88.3078C446.168 85.6973 443.958 82.504 442.52 78.9524C440.996 75.2745 440.219 71.335 440.229 67.3636C440.2 63.6629 440.868 59.9905 442.197 56.5306C443.554 53.1257 445.648 50.0527 448.329 47.5259C450.803 45.1131 453.738 43.219 456.967 41.946C460.286 40.6454 463.83 39.9808 467.399 39.9918C470.961 39.946 474.499 40.5648 477.832 41.8064C480.992 43.0017 483.857 44.8454 486.242 47.2161C488.964 49.8064 491.097 52.9382 492.495 56.4047C493.863 59.9469 494.544 63.7097 494.504 67.4998C494.52 71.4069 493.75 75.2784 492.237 78.8877C490.892 82.1469 488.891 85.1017 486.356 87.5724C483.819 90.0451 480.8 91.9856 477.484 93.2715C474.232 94.4412 470.795 95.0171 467.334 94.9669ZM282.946 94.9465L282.56 94.8818H270.787C267.42 94.9422 264.054 94.6352 260.754 93.9626C257.851 93.4506 255.048 92.4856 252.451 91.1028C250.255 89.7651 248.408 87.9409 247.052 85.7715C245.985 83.9283 245.38 81.8619 245.292 79.7422L245.288 79.6435L245.292 74.7172C245.291 72.9457 245.302 70.3193 245.292 66.8427C245.281 63.3629 245.226 60.8232 245.226 59.244C245.138 55.4877 244.255 52.9347 243.314 51.7712C242.375 50.6089 240.463 49.8112 237.223 49.8103C234.729 49.9395 232.285 50.5314 230.012 51.5499C227.098 52.7014 224.281 54.0825 221.591 55.6795C221.591 56.6619 221.588 58.3692 221.588 60.8543C221.589 64.5364 221.587 67.9519 221.588 70.9383C221.587 73.9268 221.588 94.6126 221.588 94.892H210.239V40.5467L221.891 40.5502V45.4355C225.074 43.6627 228.407 42.1598 231.848 40.9451C234.617 39.9188 237.531 39.3433 240.485 39.236C242.682 39.1507 244.874 39.5186 246.918 40.3152C248.964 41.1132 250.816 42.3195 252.362 43.8661C255.397 46.9911 256.879 51.2404 256.878 56.3094C256.878 60.653 256.846 64.3875 256.792 67.5236C256.739 70.663 256.737 73.17 256.737 75.1326V78.5677C256.691 79.6801 257.028 80.7731 257.688 81.6725C258.546 82.7174 259.66 83.5208 260.927 84.008C262.303 84.5771 263.761 84.9378 265.247 85.077C265.669 85.1614 266.014 85.1597 266.391 85.1587C265.51 83.2054 265.058 81.0885 265.065 78.949C265.01 75.4772 266.232 72.1037 268.506 69.4539C270.976 66.6639 274.099 64.5147 277.602 63.1932C280.617 62.0444 283.736 61.1876 286.918 60.633C290.659 59.915 294.438 59.3922 298.236 59.0738C298.026 57.5936 297.501 56.173 296.693 54.9101C295.634 53.403 294.123 52.261 292.372 51.6453C290.873 51.0444 289.302 50.6366 287.697 50.4299C285.602 50.1654 283.492 50.0431 281.382 50.0656C279.869 50.0651 278.648 50.1079 277.537 50.1609C276.425 50.214 274.922 50.3212 273.075 50.406L271.056 50.5252L272.296 40.4106L273.702 40.3016L276.799 40.1212C278.387 39.9923 280.496 39.9907 283.218 39.9918C287.042 39.9425 290.856 40.3849 294.567 41.3059C297.763 42.0945 300.725 43.6232 303.204 45.7658C305.305 47.7362 306.913 50.1602 307.9 52.8504C309.014 55.785 309.5 59.7452 309.503 64.8239C309.501 73.3168 309.576 80.2107 309.499 85.5672C309.425 90.9228 309.426 92.0452 309.427 92.451V92.8323V93.0468C309.435 93.2459 309.403 93.4464 309.337 93.6358C309.225 94.0125 308.996 94.3438 308.679 94.5788C308.361 94.8159 307.976 94.9424 307.58 94.9465H282.946ZM467.323 85.6319C469.202 85.6446 471.064 85.3279 472.829 84.6923C474.467 84.0609 475.96 83.1153 477.225 81.9074C479.038 80.1468 480.45 78.0222 481.363 75.6773C482.336 73.1691 482.83 70.5053 482.821 67.8232C482.822 64.9474 482.318 62.0933 481.332 59.3904C480.412 56.821 478.855 54.5214 476.805 52.7006C475.59 51.5889 474.157 50.7408 472.595 50.2052C470.931 49.6063 469.171 49.3072 467.399 49.32C465.496 49.2688 463.599 49.5808 461.814 50.246C460.145 50.9499 458.628 51.9748 457.356 53.2556C455.582 54.9972 454.222 57.1033 453.373 59.4244C452.389 61.9584 451.89 64.6494 451.902 67.3636C451.868 70.3001 452.378 73.2172 453.404 75.9735C454.398 78.5197 456.03 80.7723 458.145 82.5236C459.378 83.542 460.789 84.3254 462.31 84.8319C463.925 85.3726 465.619 85.6423 467.323 85.6319ZM424.074 85.1655H424.346C424.345 84.2043 424.346 82.85 424.346 81.0904C424.41 77.6861 424.409 73.6757 424.408 69.0114C424.408 66.5698 424.411 63.4846 424.408 59.7717C424.377 56.5923 424.364 53.2926 424.301 49.8681C421.661 49.8645 419.026 50.0683 416.418 50.4775C413.936 50.9059 411.511 51.6238 409.194 52.6121C406.17 53.8134 403.596 55.9057 401.821 58.6074C400.107 61.3031 399.221 64.4306 399.271 67.6121C399.171 70.7083 400.044 73.7576 401.776 76.3411C403.475 78.7943 405.821 80.7456 408.556 81.9857C410.803 83.01 413.155 83.779 415.574 84.2803C418.365 84.8845 421.217 85.1809 424.074 85.1655ZM294.426 85.0463C295.063 85.0459 295.892 85.0443 296.906 85.0429C297.36 85.0443 297.925 85.043 298.443 85.0429C298.442 84.5851 298.44 84.0727 298.44 83.4428C298.441 81.6811 298.443 79.2701 298.443 76.2731L298.453 72.2933C298.454 71.1303 298.453 69.8608 298.453 68.4292C296.974 68.538 294.911 68.7827 292.362 69.0829C289.212 69.4068 286.107 70.0648 283.097 71.0438C281.407 71.5712 279.84 72.4294 278.488 73.5631C277.935 74.0008 277.491 74.5595 277.192 75.1938C276.894 75.8315 276.751 76.523 276.768 77.2229C276.723 77.9498 276.832 78.6776 277.089 79.3609C277.345 80.0462 277.743 80.6693 278.257 81.1925C279.552 82.3611 281.111 83.2036 282.805 83.6471C284.535 84.166 286.311 84.5201 288.107 84.7127C290.206 84.936 292.316 85.0497 294.426 85.0463ZM370.265 33.6459C370.017 33.6439 369.771 33.5949 369.541 33.4995C369.315 33.4033 369.107 33.2624 368.935 33.0876C368.761 32.9116 368.629 32.7042 368.539 32.4748C368.447 32.2474 368.402 32.0026 368.408 31.7565V23.7219C368.398 23.235 368.58 22.7661 368.918 22.4112C369.255 22.0565 369.72 21.8451 370.213 21.8223H378.85C379.102 21.8233 379.35 21.8734 379.581 21.9721C379.813 22.0686 380.021 22.2094 380.194 22.3874C380.369 22.5667 380.508 22.7756 380.597 23.007C380.686 23.2385 380.728 23.4866 380.718 23.7356V31.7462C380.724 31.9909 380.685 32.2315 380.597 32.4578C380.509 32.6841 380.38 32.8924 380.211 33.0672C380.042 33.244 379.84 33.3867 379.615 33.4859C379.392 33.5831 379.15 33.6402 378.906 33.6459L370.265 33.6459Z" fill="white"/>
</g>
<defs>
<filter id="filter0_f_135_122" x="-97.687" y="-31.5659" width="372.054" height="366.131" filterUnits="userSpaceOnUse" color-interpolation-filters="sRGB">
<feFlood flood-opacity="0" result="BackgroundImageFix"/>
<feBlend mode="normal" in="SourceGraphic" in2="BackgroundImageFix" result="shape"/>
<feGaussianBlur stdDeviation="75" result="effect1_foregroundBlur_135_122"/>
</filter>
<filter id="filter1_f_135_122" x="-97.687" y="-31.5659" width="372.054" height="366.131" filterUnits="userSpaceOnUse" color-interpolation-filters="sRGB">
<feFlood flood-opacity="0" result="BackgroundImageFix"/>
<feBlend mode="normal" in="SourceGraphic" in2="BackgroundImageFix" result="shape"/>
<feGaussianBlur stdDeviation="75" result="effect1_foregroundBlur_135_122"/>
</filter>
<filter id="filter2_f_135_122" x="-97.687" y="-31.5659" width="372.054" height="366.131" filterUnits="userSpaceOnUse" color-interpolation-filters="sRGB">
<feFlood flood-opacity="0" result="BackgroundImageFix"/>
<feBlend mode="normal" in="SourceGraphic" in2="BackgroundImageFix" result="shape"/>
<feGaussianBlur stdDeviation="75" result="effect1_foregroundBlur_135_122"/>
</filter>
<clipPath id="clip0_135_122">
<rect width="533" height="334" rx="20" fill="white"/>
</clipPath>
</defs>
</svg>
