<svg xmlns="http://www.w3.org/2000/svg" viewBox="0 0 240 240" width="240" height="240">
<rect width="240" height="240" fill="#EEEBE4"/>
<path d="M23.7 66.0C20.7 62.2 5.5 64.8 -3.2 66.0C-11.8 67.2 -21.6 68.4 -28.4 73.2C-35.3 78.0 -40.3 86.4 -44.2 94.8C-48.2 103.2 -53.2 114.4 -52.1 123.6C-51.1 132.8 -43.6 145.2 -37.9 150.0C-32.2 154.8 -23.6 156.0 -18.2 152.4C-12.8 148.8 -9.5 135.4 -5.5 128.4C-1.6 121.4 2.1 117.0 5.5 110.4C8.9 103.8 12.0 96.2 15.0 88.8C18.0 81.4 26.7 69.8 23.7 66.0Z" fill="#CFE3C0"/>
<path d="M244.0 152.4C251.1 146.4 269.6 147.6 284.2 150.0C298.8 152.4 324.7 158.0 331.6 166.8C338.4 175.6 335.5 197.6 325.3 202.8C315.0 208.0 284.0 200.8 270.0 198.0C256.1 195.2 245.9 193.6 241.6 186.0C237.2 178.4 236.8 158.4 244.0 152.4Z" fill="#CFE3C0"/>
<path d="M185.5 57.6C186.8 55.4 193.6 56.6 195.8 58.3C198.0 60.0 199.9 65.7 198.6 67.9C197.4 70.2 190.4 73.5 188.2 71.8C186.0 70.0 184.3 59.8 185.5 57.6Z" fill="#CFE3C0"/>
<path d="M198.2 103.2C200.8 101.0 213.0 102.2 216.3 104.4C219.6 106.6 220.5 114.2 217.9 116.4C215.3 118.6 203.8 119.8 200.5 117.6C197.2 115.4 195.5 105.4 198.2 103.2Z" fill="#CFE3C0"/>
<path d="M112.1 140.4C113.9 138.4 121.3 138.4 123.2 140.4C125.0 142.4 124.1 149.6 123.2 152.4C122.2 155.2 119.5 157.2 117.6 157.2C115.8 157.2 113.0 155.2 112.1 152.4C111.2 149.6 110.3 142.4 112.1 140.4Z" fill="#CFE3C0"/>
<path d="M93.5 99.1C96.9 99.7 109.4 105.3 112.1 107.5C114.8 109.8 113.1 113.1 109.6 112.6C106.1 112.0 93.9 106.4 91.3 104.2C88.6 101.9 90.0 98.6 93.5 99.1Z" fill="#CFE3C0"/>
<path d="M52.9 116.4C49.6 115.0 46.1 118.2 47.7 121.2C49.3 124.2 59.0 133.0 62.4 134.4C65.7 135.8 69.2 132.6 67.6 129.6C66.0 126.6 56.2 117.8 52.9 116.4Z" fill="#CFE3C0"/>
<path d="M115.3 199.2C116.8 197.6 123.0 198.4 124.7 200.4C126.4 202.4 127.1 209.6 125.5 211.2C123.9 212.8 117.0 212.0 115.3 210.0C113.6 208.0 113.7 200.8 115.3 199.2Z" fill="#CFE3C0"/>
<path d="M197.4 21.6C199.5 19.8 208.3 24.2 210.0 27.6C211.7 31.0 209.7 40.2 207.6 42.0C205.5 43.8 199.1 41.8 197.4 38.4C195.7 35.0 195.3 23.4 197.4 21.6Z" fill="#CFE3C0"/>
<path d="M96.3 159.6C98.4 158.4 107.1 159.8 108.9 162.0C110.8 164.2 109.5 171.6 107.4 172.8C105.3 174.0 98.2 171.4 96.3 169.2C94.5 167.0 94.2 160.8 96.3 159.6Z" fill="#CFE3C0"/>
<path d="M16.6 152.4C18.8 151.6 25.8 154.8 26.8 157.2C27.9 159.6 25.1 166.0 22.9 166.8C20.7 167.6 14.5 164.4 13.4 162.0C12.4 159.6 14.3 153.2 16.6 152.4Z" fill="#CFE3C0"/>
<path d="M148.4 148.8C150.7 148.0 158.7 149.6 160.3 151.2C161.8 152.8 160.1 157.6 157.9 158.4C155.7 159.2 148.4 157.6 146.8 156.0C145.3 154.4 146.2 149.6 148.4 148.8Z" fill="#CFE3C0"/>
<path d="M183.2 163.2C186.1 164.7 196.1 173.5 198.2 176.4C200.2 179.3 198.5 182.2 195.5 180.7C192.5 179.2 182.4 170.4 180.3 167.5C178.3 164.6 180.2 161.7 183.2 163.2Z" fill="#CFE3C0"/>
<path d="M148.6 183.8C148.9 185.8 149.8 191.9 150.5 195.4C151.1 198.8 151.8 201.6 152.4 204.5C152.9 207.3 153.7 211.1 153.9 212.4" fill="none" stroke="#FFFFFF" stroke-width="1.60" stroke-linecap="round" stroke-linejoin="round"/>
<path d="M93.6 157.0C91.4 156.8 84.0 155.7 80.4 156.0C76.8 156.3 75.1 157.4 72.0 158.6C68.9 159.8 64.5 161.5 61.6 163.2C58.6 164.9 57.7 166.2 54.3 169.0C50.9 171.8 43.4 178.2 41.2 180.0" fill="none" stroke="#FFFFFF" stroke-width="1.60" stroke-linecap="round" stroke-linejoin="round"/>
<path d="M163.9 55.7C165.1 56.8 167.3 62.5 170.8 62.2C174.4 61.8 181.0 55.9 185.4 53.8C189.7 51.6 193.6 50.8 196.9 49.4C200.2 48.1 203.7 46.2 205.1 45.6" fill="none" stroke="#FFFFFF" stroke-width="1.60" stroke-linecap="round" stroke-linejoin="round"/>
<path d="M159.8 96.2C161.2 97.4 165.5 100.6 168.3 103.0C171.1 105.4 173.7 108.0 176.7 110.6C179.7 113.3 183.6 116.5 186.5 119.0C189.4 121.6 191.6 123.8 194.1 126.0C196.5 128.2 198.3 129.6 201.2 132.2C204.0 134.9 209.6 140.2 211.3 141.8" fill="none" stroke="#FFFFFF" stroke-width="1.60" stroke-linecap="round" stroke-linejoin="round"/>
<path d="M104.1 56.9C103.5 55.6 100.8 53.1 100.7 49.4C100.7 45.8 102.8 39.0 103.6 34.8C104.4 30.6 105.3 25.8 105.6 24.0" fill="none" stroke="#FFFFFF" stroke-width="1.60" stroke-linecap="round" stroke-linejoin="round"/>
<path d="M52.1 80.9C47.5 81.8 29.2 85.3 24.6 86.2" fill="none" stroke="#FFFFFF" stroke-width="1.60" stroke-linecap="round" stroke-linejoin="round"/>
<path d="M110.7 88.3C111.9 87.3 115.8 84.0 117.9 82.3C120.1 80.6 121.4 79.1 123.5 78.0C125.6 76.9 128.2 76.4 130.4 75.6C132.6 74.8 133.2 73.1 136.7 73.0C140.3 72.8 147.4 76.5 151.6 74.9C155.7 73.2 159.6 66.3 161.7 63.1C163.7 59.9 163.5 56.9 163.9 55.7" fill="none" stroke="#FFFFFF" stroke-width="1.60" stroke-linecap="round" stroke-linejoin="round"/>
<path d="M169.1 130.3C170.3 133.8 170.6 145.3 176.1 151.0C181.5 156.6 196.0 162.1 202.0 164.2C207.9 166.2 208.6 162.6 211.9 163.4C215.2 164.3 219.0 167.5 221.5 169.2C224.1 170.9 226.1 173.0 227.1 173.8" fill="none" stroke="#FFFFFF" stroke-width="1.60" stroke-linecap="round" stroke-linejoin="round"/>
<path d="M162.6 154.8C161.5 156.6 157.7 162.6 156.0 165.6C154.3 168.6 153.6 169.5 152.4 172.6C151.1 175.6 149.2 182.0 148.6 183.8" fill="none" stroke="#FFFFFF" stroke-width="1.60" stroke-linecap="round" stroke-linejoin="round"/>
<path d="M40.3 105.6C37.7 105.4 28.6 102.2 25.1 104.4C21.6 106.6 21.2 115.1 19.1 118.6C17.0 122.0 14.2 123.0 12.6 125.3C11.1 127.5 11.4 129.0 9.8 132.0C8.2 135.0 4.8 140.4 3.0 143.5C1.2 146.6 0.3 148.6 -0.8 150.7C-1.9 152.8 -2.5 153.3 -3.6 156.0C-4.8 158.7 -7.1 165.2 -7.7 167.0" fill="none" stroke="#FFFFFF" stroke-width="1.60" stroke-linecap="round" stroke-linejoin="round"/>
<path d="M58.4 140.9C57.1 142.6 52.3 148.6 50.4 151.0C48.5 153.4 48.6 153.8 47.0 155.3C45.5 156.7 43.5 157.9 40.9 159.6C38.3 161.3 33.9 163.6 31.4 165.4C28.9 167.2 26.8 169.6 25.9 170.4" fill="none" stroke="#FFFFFF" stroke-width="1.60" stroke-linecap="round" stroke-linejoin="round"/>
<path d="M113.7 129.1C112.8 130.1 110.2 132.9 108.6 135.1C107.1 137.3 105.9 139.4 104.2 142.3C102.5 145.2 99.3 150.9 98.4 152.6" fill="none" stroke="#FFFFFF" stroke-width="1.60" stroke-linecap="round" stroke-linejoin="round"/>
<path d="M98.7 90.0C97.8 88.2 95.4 83.4 93.2 79.0C90.9 74.5 88.0 66.3 84.9 63.1C81.9 59.9 78.0 60.8 75.0 59.8C72.0 58.7 70.3 57.8 67.1 56.9C63.9 56.0 59.3 55.1 56.0 54.2C52.8 53.4 49.2 52.0 47.8 51.6" fill="none" stroke="#FFFFFF" stroke-width="1.60" stroke-linecap="round" stroke-linejoin="round"/>
<path d="M139.9 56.6C139.6 55.3 138.6 51.7 138.3 48.7C138.1 45.8 138.8 41.6 138.3 38.9C137.8 36.2 136.7 35.2 135.5 32.6C134.2 30.1 131.5 25.2 130.7 23.8" fill="none" stroke="#FFFFFF" stroke-width="1.60" stroke-linecap="round" stroke-linejoin="round"/>
<path d="M181.3 84.5C183.5 83.9 191.2 82.0 194.5 80.9C197.8 79.7 197.7 78.2 201.2 77.5C204.7 76.8 211.0 77.5 215.5 76.8C220.1 76.1 226.2 73.8 228.3 73.2" fill="none" stroke="#FFFFFF" stroke-width="1.60" stroke-linecap="round" stroke-linejoin="round"/>
<path d="M198.6 108.7C201.5 107.6 210.0 102.7 215.5 101.8C221.1 100.8 229.1 103.0 231.8 103.2" fill="none" stroke="#FFFFFF" stroke-width="1.60" stroke-linecap="round" stroke-linejoin="round"/>
<path d="M34.3 71.0C37.2 72.7 45.2 77.4 52.1 80.9C59.0 84.4 68.6 88.9 75.5 92.2C82.4 95.4 85.5 97.1 93.5 100.3C101.5 103.5 115.1 107.9 123.5 111.4C131.8 114.8 138.2 118.6 143.7 121.0C149.1 123.3 151.9 124.0 156.2 125.5C160.4 127.1 163.0 128.3 169.1 130.3C175.2 132.4 185.6 135.8 192.6 137.8C199.7 139.7 204.5 140.6 211.3 141.8C218.0 143.0 229.4 144.4 233.1 145.0" fill="none" stroke="#FFFFFF" stroke-width="2.80" stroke-linecap="round" stroke-linejoin="round"/>
<path d="M153.3 24.2C153.6 27.0 154.4 35.4 154.7 40.6C155.1 45.8 155.9 49.7 155.4 55.4C154.8 61.2 153.1 69.0 151.6 74.9C150.1 80.8 147.6 86.8 146.2 91.0C144.8 95.1 145.1 95.1 143.1 99.6C141.1 104.1 136.5 113.0 134.2 118.1C131.9 123.1 131.0 125.0 129.2 129.8C127.3 134.7 124.9 141.9 123.2 147.1C121.4 152.3 120.8 156.1 118.7 161.0C116.7 166.0 113.5 171.8 110.8 176.6C108.2 181.5 104.5 185.9 102.8 190.3C101.1 194.7 100.8 200.9 100.4 203.0" fill="none" stroke="#FFFFFF" stroke-width="2.80" stroke-linecap="round" stroke-linejoin="round"/>
<path d="M98.7 90.0C100.7 89.7 106.9 89.0 110.7 88.3C114.4 87.6 118.3 86.2 121.1 85.9C123.9 85.6 124.9 85.9 127.6 86.4C130.2 86.9 134.2 88.0 137.1 88.8C139.9 89.6 140.8 90.2 144.6 91.4C148.4 92.7 156.3 93.7 159.8 96.2C163.3 98.8 164.2 102.4 165.5 106.6C166.8 110.7 167.0 117.1 167.7 121.0C168.4 124.8 171.6 127.0 169.7 129.8C167.8 132.7 161.9 136.7 156.3 138.0C150.7 139.3 141.6 138.6 135.9 137.8C130.3 137.0 126.4 134.6 122.7 133.2C119.0 131.8 117.4 130.7 113.7 129.1C110.0 127.6 103.4 125.8 100.6 123.8C97.7 121.9 97.8 119.4 96.5 117.4C95.1 115.3 93.0 114.2 92.5 111.4C92.0 108.5 92.4 103.9 93.5 100.3C94.5 96.8 97.8 91.7 98.7 90.0" fill="none" stroke="#FFFFFF" stroke-width="2.80" stroke-linecap="round" stroke-linejoin="round"/>
<path d="M52.1 80.9C52.9 79.1 54.8 72.5 57.0 70.3C59.2 68.1 62.2 68.6 65.2 67.7C68.2 66.7 71.5 65.3 74.8 64.6C78.1 63.8 81.8 63.8 84.9 63.1C88.1 62.4 90.6 61.3 93.8 60.2C97.0 59.2 101.1 57.4 104.1 56.9C107.0 56.3 108.6 56.3 111.3 56.9C114.1 57.5 117.4 60.1 120.5 60.5C123.6 60.8 126.6 59.7 129.8 59.0C133.0 58.4 135.6 57.2 139.9 56.6C144.2 56.0 151.4 55.6 155.4 55.4C159.4 55.3 161.3 54.6 163.9 55.7C166.5 56.8 169.6 59.5 170.8 62.2C172.1 64.8 169.6 67.8 171.3 71.5C173.1 75.2 178.6 81.1 181.3 84.5C183.9 87.8 185.3 89.3 187.1 91.7C188.9 94.1 190.2 96.0 192.2 98.9C194.1 101.7 196.8 105.5 198.6 108.7C200.5 112.0 201.2 115.8 203.1 118.3C204.9 120.8 207.7 121.0 209.7 123.6C211.7 126.2 214.6 130.7 214.9 133.7C215.2 136.7 210.4 138.9 211.3 141.6C212.1 144.3 218.6 146.9 220.0 149.8C221.3 152.6 220.7 156.4 219.3 158.6C218.0 160.9 214.8 162.5 211.9 163.4C209.0 164.4 206.3 164.5 202.0 164.2C197.6 163.8 190.0 160.7 185.5 161.5C181.0 162.4 178.0 167.1 175.0 169.2C172.0 171.3 170.2 172.7 167.5 174.2C164.9 175.8 162.3 176.7 159.2 178.3C156.0 179.9 151.8 182.5 148.6 183.8C145.3 185.2 143.1 186.6 139.7 186.5C136.4 186.4 132.2 184.4 128.7 183.1C125.2 181.9 121.4 180.3 118.6 179.0C115.8 177.8 113.6 178.1 111.9 175.7C110.3 173.3 110.6 167.3 108.6 164.6C106.7 162.0 102.8 161.1 100.3 159.8C97.8 158.6 96.9 157.6 93.6 157.0C90.3 156.3 83.5 157.4 80.4 156.0C77.3 154.6 77.6 150.6 75.0 148.6C72.4 146.6 67.3 145.3 64.6 144.0C61.8 142.7 60.9 142.1 58.4 140.9C56.0 139.7 52.4 138.8 49.9 136.8C47.3 134.8 45.2 131.4 43.1 128.6C41.0 125.8 37.9 123.8 37.4 120.0C36.9 116.2 39.1 109.4 40.3 105.6C41.4 101.8 42.7 100.6 44.2 97.4C45.7 94.3 47.9 89.6 49.3 86.9C50.6 84.1 51.6 81.9 52.1 80.9" fill="none" stroke="#FFFFFF" stroke-width="2.80" stroke-linecap="round" stroke-linejoin="round"/>
<path d="M29.2 68.4C33.5 62.0 39.3 53.8 44.2 49.2C49.1 44.6 52.4 44.4 58.4 40.8C64.5 37.2 72.6 31.2 80.5 27.6C88.4 24.0 97.5 21.0 105.8 19.2C114.1 17.4 122.2 17.4 130.3 16.8C138.3 16.2 147.2 15.8 153.9 15.6C160.7 15.4 163.6 15.0 170.5 15.6C177.5 16.2 188.3 14.6 195.8 19.2C203.3 23.8 209.6 34.2 215.5 43.2C221.5 52.2 227.9 63.0 231.3 73.2C234.7 83.4 234.9 95.0 236.1 104.4C237.2 113.8 238.2 122.8 238.4 129.6C238.7 136.4 238.4 138.0 237.6 145.2C236.8 152.4 237.4 166.0 233.7 172.8C230.0 179.6 220.9 181.9 215.5 186.0C210.1 190.1 208.4 193.9 201.3 197.3C194.2 200.7 180.7 203.3 172.9 206.4C165.1 209.5 161.7 214.0 154.7 216.0C147.8 218.0 139.9 219.8 131.1 218.4C122.2 217.0 109.7 210.2 101.8 207.6C93.9 205.0 89.3 204.8 83.7 202.8C78.0 200.8 75.0 198.6 67.9 195.6C60.8 192.6 49.1 187.8 41.0 184.8C33.0 181.8 25.8 179.8 19.7 177.6C13.7 175.4 9.7 173.6 4.7 171.6C-0.3 169.6 -7.1 169.8 -10.3 165.6C-13.4 161.4 -15.9 153.8 -14.2 146.4C-12.5 139.0 -4.0 127.6 -0.0 121.2C3.9 114.8 6.4 113.6 9.5 108.0C12.5 102.4 14.9 94.2 18.2 87.6C21.4 81.0 24.9 74.8 29.2 68.4Z" fill="none" stroke="#DDD8CE" stroke-width="6.00" stroke-linejoin="round"/>
<path d="M29.2 68.4C33.5 62.0 39.3 53.8 44.2 49.2C49.1 44.6 52.4 44.4 58.4 40.8C64.5 37.2 72.6 31.2 80.5 27.6C88.4 24.0 97.5 21.0 105.8 19.2C114.1 17.4 122.2 17.4 130.3 16.8C138.3 16.2 147.2 15.8 153.9 15.6C160.7 15.4 163.6 15.0 170.5 15.6C177.5 16.2 188.3 14.6 195.8 19.2C203.3 23.8 209.6 34.2 215.5 43.2C221.5 52.2 227.9 63.0 231.3 73.2C234.7 83.4 234.9 95.0 236.1 104.4C237.2 113.8 238.2 122.8 238.4 129.6C238.7 136.4 238.4 138.0 237.6 145.2C236.8 152.4 237.4 166.0 233.7 172.8C230.0 179.6 220.9 181.9 215.5 186.0C210.1 190.1 208.4 193.9 201.3 197.3C194.2 200.7 180.7 203.3 172.9 206.4C165.1 209.5 161.7 214.0 154.7 216.0C147.8 218.0 139.9 219.8 131.1 218.4C122.2 217.0 109.7 210.2 101.8 207.6C93.9 205.0 89.3 204.8 83.7 202.8C78.0 200.8 75.0 198.6 67.9 195.6C60.8 192.6 49.1 187.8 41.0 184.8C33.0 181.8 25.8 179.8 19.7 177.6C13.7 175.4 9.7 173.6 4.7 171.6C-0.3 169.6 -7.1 169.8 -10.3 165.6C-13.4 161.4 -15.9 153.8 -14.2 146.4C-12.5 139.0 -4.0 127.6 -0.0 121.2C3.9 114.8 6.4 113.6 9.5 108.0C12.5 102.4 14.9 94.2 18.2 87.6C21.4 81.0 24.9 74.8 29.2 68.4Z" fill="none" stroke="#FFFFFF" stroke-width="4.20" stroke-linejoin="round"/>
<path d="M277.9 243.6C274.0 241.2 262.1 233.8 254.2 229.2C246.3 224.6 237.2 219.8 230.5 216.0C223.8 212.2 218.8 209.5 214.0 206.4C209.1 203.3 204.2 199.6 201.3 197.3C198.4 195.0 198.4 195.1 196.4 192.7C194.4 190.3 191.6 185.7 189.3 182.9C187.1 180.0 184.8 178.3 182.8 175.7C180.9 173.1 180.0 170.4 177.6 167.3C175.3 164.2 171.3 159.9 169.0 157.2C166.6 154.5 165.8 154.0 163.3 151.0C160.8 147.9 157.2 141.9 153.9 138.7C150.7 135.6 146.8 133.9 143.7 132.0C140.5 130.1 138.2 129.2 135.0 127.2C131.8 125.2 128.6 122.0 124.7 120.0C120.9 118.0 115.3 116.4 112.1 115.2C108.9 114.0 109.3 114.2 105.8 112.6C102.3 110.9 95.2 106.5 91.1 105.1C87.1 103.8 86.1 104.0 81.5 104.4C76.8 104.8 68.7 105.6 63.2 107.3C57.6 109.0 52.0 111.5 48.2 114.5C44.3 117.5 43.1 121.6 39.9 125.3C36.8 129.0 32.2 133.3 29.2 136.8C26.2 140.3 24.7 142.0 21.8 146.4C18.9 150.8 14.7 159.0 11.8 163.2C9.0 167.4 8.3 167.8 4.7 171.6C1.2 175.4 -4.7 181.2 -9.5 186.0C-14.2 190.8 -18.4 195.6 -23.7 200.4C-29.0 205.2 -38.2 212.4 -41.1 214.8" fill="none" stroke="#A7CBEB" stroke-width="7.00" stroke-linecap="round" stroke-linejoin="round"/>
</svg>
